<?xml version="1.0" encoding="UTF-8"?>
<svg width="1200pt" height="1200pt" version="1.1" viewBox="0 0 1200 1200" xmlns="http://www.w3.org/2000/svg">
 <g>
  <path d="m506.25 581.25-3.75 1.875c-3.75 1.875-73.125 30-213.75-30l-97.5 243.75-148.12 260.62 67.5 43.125 240-382.5c41.25-75 110.62-26.25 110.62-26.25l114.38 125.62-52.5 168.75 78.75 16.875 54.375-206.25-148.12-221.25z"/>
  <path d="m601.88 607.5 63.75 24.375v-11.25l-63.75-63.75z"/>
  <path d="m778.12 151.88c0 50.742-41.133 91.875-91.875 91.875s-91.875-41.133-91.875-91.875 41.133-91.875 91.875-91.875 91.875 41.133 91.875 91.875"/>
  <path d="m1006.9 766.88-61.875-61.875c-11.25-11.25-28.125-11.25-37.5 0l-24.375 24.375-24.375-24.375-11.25 11.25-271.88-273.75 30-48.75-1.875 60 65.625 65.625 5.625-178.12c-45-170.62-352.5-170.62-352.5-170.62-80.625 3.75-52.5 198.75-52.5 198.75l69.375-13.125-3.75-112.5 112.5 48.75-159.38 245.62c138.75 61.875 206.25 31.875 206.25 31.875l52.5-84.375 266.25 264.38-11.25 11.25 24.375 24.375-24.375 24.375c-11.25 11.25-11.25 28.125 0 37.5l61.875 61.875c39.375 39.375 105 39.375 144.38 0s39.375-103.12-1.875-142.5z"/>
  <path d="m1156.9 881.25v258.75h-281.25c1.875-54.375 16.875-151.88 91.875-155.62 0 0 90-5.625 125.62-67.5 0 0 26.25-39.375 63.75-35.625z"/>
 </g>
</svg>
